<?xml version="1.0" encoding="UTF-8" standalone="no"?>
<!-- Created with Inkscape (http://www.inkscape.org/) -->

<svg
   width="76.199997mm"
   height="38.099998mm"
   viewBox="0 0 76.199997 38.099998"
   version="1.1"
   id="svg1"
   inkscape:version="1.4 (86a8ad7, 2024-10-11)"
   sodipodi:docname="tda_play_cash_twenty_bill_f.svg"
   xmlns:inkscape="http://www.inkscape.org/namespaces/inkscape"
   xmlns:sodipodi="http://sodipodi.sourceforge.net/DTD/sodipodi-0.dtd"
   xmlns:xlink="http://www.w3.org/1999/xlink"
   xmlns="http://www.w3.org/2000/svg"
   xmlns:svg="http://www.w3.org/2000/svg">
  <sodipodi:namedview
     id="namedview1"
     pagecolor="#505050"
     bordercolor="#eeeeee"
     borderopacity="1"
     inkscape:showpageshadow="0"
     inkscape:pageopacity="0"
     inkscape:pagecheckerboard="0"
     inkscape:deskcolor="#505050"
     inkscape:document-units="mm"
     showgrid="false"
     inkscape:zoom="1.0592242"
     inkscape:cx="-355.92088"
     inkscape:cy="457.41025"
     inkscape:window-width="3440"
     inkscape:window-height="1369"
     inkscape:window-x="1912"
     inkscape:window-y="-8"
     inkscape:window-maximized="1"
     inkscape:current-layer="layer1" />
  <defs
     id="defs1">
    <linearGradient
       inkscape:collect="always"
       xlink:href="#swatch67"
       id="linearGradient67"
       x1="0.61791754"
       y1="89.680222"
       x2="288.61725"
       y2="89.680222"
       gradientUnits="userSpaceOnUse" />
    <linearGradient
       id="swatch67"
       inkscape:swatch="solid"
       inkscape:label="twenty-light">
      <stop
         style="stop-color:#fff9b3;stop-opacity:0.75;"
         offset="0"
         id="stop67" />
    </linearGradient>
    <linearGradient
       inkscape:collect="always"
       xlink:href="#swatch66"
       id="linearGradient81"
       x1="0.61791754"
       y1="89.680222"
       x2="288.61725"
       y2="89.680222"
       gradientUnits="userSpaceOnUse" />
    <linearGradient
       id="swatch66"
       inkscape:swatch="solid"
       inkscape:label="twenty-dark">
      <stop
         style="stop-color:#aca438;stop-opacity:1;"
         offset="0"
         id="stop66" />
    </linearGradient>
    <linearGradient
       inkscape:collect="always"
       xlink:href="#swatch69"
       id="linearGradient69"
       x1="24.392094"
       y1="38.342514"
       x2="55.104404"
       y2="38.342514"
       gradientUnits="userSpaceOnUse" />
    <linearGradient
       id="swatch69"
       inkscape:swatch="solid"
       inkscape:label="twenty-mid">
      <stop
         style="stop-color:#fff580;stop-opacity:1;"
         offset="0"
         id="stop69" />
    </linearGradient>
    <linearGradient
       inkscape:collect="always"
       xlink:href="#swatch66"
       id="linearGradient29"
       x1="24.392094"
       y1="38.342514"
       x2="55.104404"
       y2="38.342514"
       gradientUnits="userSpaceOnUse" />
    <linearGradient
       inkscape:collect="always"
       xlink:href="#swatch66"
       id="linearGradient45"
       x1="2.3014801"
       y1="26.398911"
       x2="9.0005493"
       y2="26.398911"
       gradientUnits="userSpaceOnUse" />
    <linearGradient
       inkscape:collect="always"
       xlink:href="#swatch66"
       id="linearGradient44"
       x1="259.81757"
       y1="32.080227"
       x2="288.61755"
       y2="32.080227"
       gradientUnits="userSpaceOnUse" />
    <linearGradient
       inkscape:collect="always"
       xlink:href="#swatch66"
       id="linearGradient43"
       x1="0.61756802"
       y1="147.28023"
       x2="29.417566"
       y2="147.28023"
       gradientUnits="userSpaceOnUse" />
    <linearGradient
       inkscape:collect="always"
       xlink:href="#swatch66"
       id="linearGradient42"
       x1="259.81757"
       y1="147.28023"
       x2="288.61755"
       y2="147.28023"
       gradientUnits="userSpaceOnUse" />
    <linearGradient
       inkscape:collect="always"
       xlink:href="#swatch67"
       id="linearGradient34"
       x1="9.0005493"
       y1="39.704128"
       x2="20.152927"
       y2="39.704128"
       gradientUnits="userSpaceOnUse" />
    <linearGradient
       inkscape:collect="always"
       xlink:href="#swatch66"
       id="linearGradient36"
       x1="9.0005493"
       y1="39.704128"
       x2="20.152927"
       y2="39.704128"
       gradientUnits="userSpaceOnUse" />
    <linearGradient
       inkscape:collect="always"
       xlink:href="#swatch61"
       id="linearGradient63"
       x1="-195.01756"
       y1="-89.680229"
       x2="-94.217567"
       y2="-89.680229"
       gradientUnits="userSpaceOnUse" />
    <linearGradient
       id="swatch61"
       inkscape:swatch="solid"
       inkscape:label="ten-light">
      <stop
         style="stop-color:#efb7c0;stop-opacity:0.75;"
         offset="0"
         id="stop61" />
    </linearGradient>
    <filter
       height="1.1062305"
       y="-0.053115233"
       width="1.1073157"
       x="-0.053657864"
       id="filter4350-2"
       style="color-interpolation-filters:sRGB">
      <feGaussianBlur
         id="feGaussianBlur4352-3"
         stdDeviation="8.7848425" />
    </filter>
    <linearGradient
       y2="300.73987"
       x2="236.61363"
       y1="-161.8512"
       x1="-122.20192"
       spreadMethod="pad"
       gradientTransform="matrix(0.08192422,0,0,0.07764193,75.018176,46.241825)"
       gradientUnits="userSpaceOnUse"
       id="linearGradient4245"
       xlink:href="#linearGradient4284" />
    <linearGradient
       id="linearGradient4284">
      <stop
         offset="0"
         style="stop-color:#8381c5;stop-opacity:1"
         id="stop4286" />
      <stop
         id="stop4290"
         style="stop-color:#7e55b3;stop-opacity:0.99607843"
         offset="0.56639391" />
      <stop
         offset="1"
         style="stop-color:#a52ecb;stop-opacity:0.99215686"
         id="stop4288" />
    </linearGradient>
    <linearGradient
       y2="66.018341"
       x2="173.94518"
       y1="396.6066"
       x1="447.80933"
       gradientTransform="matrix(0.09251715,0,0,0.09251715,52.239439,23.014668)"
       gradientUnits="userSpaceOnUse"
       id="linearGradient4247"
       xlink:href="#linearGradient4292" />
    <linearGradient
       id="linearGradient4292">
      <stop
         id="stop4294"
         offset="0"
         style="stop-color:#411f5d;stop-opacity:1" />
      <stop
         id="stop4296"
         offset="1"
         style="stop-color:#5b2a85;stop-opacity:1" />
    </linearGradient>
    <linearGradient
       inkscape:collect="always"
       xlink:href="#swatch67"
       id="linearGradient33"
       x1="59.848183"
       y1="39.704128"
       x2="71.000557"
       y2="39.704128"
       gradientUnits="userSpaceOnUse" />
    <linearGradient
       inkscape:collect="always"
       xlink:href="#swatch66"
       id="linearGradient41"
       gradientUnits="userSpaceOnUse"
       x1="59.848183"
       y1="39.704128"
       x2="71.000557"
       y2="39.704128" />
    <linearGradient
       id="swatch65"
       inkscape:swatch="solid"
       inkscape:label="white">
      <stop
         style="stop-color:#ffffff;stop-opacity:1;"
         offset="0"
         id="stop65" />
    </linearGradient>
    <linearGradient
       inkscape:collect="always"
       xlink:href="#swatch66"
       id="linearGradient13"
       gradientUnits="userSpaceOnUse"
       gradientTransform="translate(0.32078984)"
       x1="30.813066"
       y1="38.342518"
       x2="48.041851"
       y2="38.342518" />
    <linearGradient
       inkscape:collect="always"
       xlink:href="#swatch66"
       id="linearGradient14"
       gradientUnits="userSpaceOnUse"
       gradientTransform="translate(0.32078984)"
       x1="31.235571"
       y1="38.342518"
       x2="47.619347"
       y2="38.342518" />
    <linearGradient
       inkscape:collect="always"
       xlink:href="#swatch65"
       id="linearGradient15"
       gradientUnits="userSpaceOnUse"
       x1="47.711815"
       y1="122.48564"
       x2="240.43752"
       y2="122.48564" />
    <linearGradient
       inkscape:collect="always"
       xlink:href="#swatch66"
       id="linearGradient16"
       gradientUnits="userSpaceOnUse"
       x1="49.391811"
       y1="122.48564"
       x2="238.75752"
       y2="122.48564" />
  </defs>
  <g
     inkscape:label="Layer 1"
     inkscape:groupmode="layer"
     id="layer1"
     transform="translate(-198.96666,-27.516667)">
    <g
       id="g3"
       transform="matrix(0.26458333,0,0,0.26458333,198.96666,27.516667)">
      <g
         inkscape:label="base_note"
         id="g1"
         transform="translate(-0.61756754,-17.680229)">
        <rect
           style="display:inline;fill:url(#linearGradient67);fill-opacity:1;stroke:url(#linearGradient81);stroke-width:14.3131;stroke-dasharray:none;stroke-opacity:1;paint-order:markers fill stroke"
           id="rect2"
           width="273.68625"
           height="129.68622"
           x="7.7744532"
           y="24.837114"
           inkscape:label="rect2" />
        <g
           id="g5"
           transform="matrix(3.4082603,0,0,3.4082603,9.1451883,-41.001034)"
           style="display:inline;stroke-width:2.11251;stroke-dasharray:none">
          <circle
             style="fill:url(#linearGradient69);fill-opacity:1;stroke:url(#linearGradient29);stroke-opacity:1;paint-order:markers fill stroke"
             id="path3"
             cx="39.748249"
             cy="38.342514"
             r="14.299901" />
          <text
             xml:space="preserve"
             style="font-style:normal;font-variant:normal;font-weight:bold;font-stretch:normal;font-size:15.6483px;font-family:'Overpass Mono';-inkscape-font-specification:'Overpass Mono Bold';text-align:start;writing-mode:lr-tb;direction:ltr;text-anchor:start;fill:url(#linearGradient13);stroke:url(#linearGradient14);stroke-width:0.845006;stroke-dasharray:none;paint-order:markers fill stroke"
             x="39.756077"
             y="43.936783"
             id="text3"><tspan
               sodipodi:role="line"
               id="tspan3"
               x="39.756077"
               y="43.936783"
               style="font-style:normal;font-variant:normal;font-weight:normal;font-stretch:normal;font-size:15.6483px;font-family:'Noto Sans';-inkscape-font-specification:'Noto Sans';text-align:center;text-anchor:middle;fill:url(#linearGradient13);fill-opacity:1;stroke:url(#linearGradient14)">20</tspan></text>
        </g>
        <ellipse
           style="display:inline;fill:#0e8547;fill-opacity:1;stroke:none;stroke-width:0;stroke-linecap:square;stroke-dasharray:none;stroke-opacity:1;paint-order:stroke fill markers"
           id="path18"
           cx="-529.08942"
           cy="-5.5217137"
           rx="14.4"
           ry="0"
           transform="scale(-1,1)" />
        <ellipse
           style="display:inline;fill:url(#linearGradient45);fill-opacity:1;stroke-width:0.514819;stroke-linecap:square;stroke-dasharray:2.05927, 1.02963;paint-order:stroke fill markers"
           id="path15"
           cx="5.6510148"
           cy="26.398911"
           rx="3.3495347"
           ry="3.3263044"
           transform="matrix(4.2991044,0,0,4.3291285,-9.2767339,-82.204044)" />
        <circle
           style="fill:url(#linearGradient44);fill-opacity:1;stroke-width:2.22098;stroke-linecap:square;stroke-dasharray:8.88388, 4.44192;paint-order:stroke fill markers"
           id="path15-8"
           cx="274.21756"
           cy="32.080227"
           r="14.4" />
        <circle
           style="fill:url(#linearGradient43);fill-opacity:1;stroke-width:2.22098;stroke-linecap:square;stroke-dasharray:8.88388, 4.44192;paint-order:stroke fill markers"
           id="path15-8-1"
           cx="15.017568"
           cy="147.28023"
           r="14.4" />
        <circle
           style="fill:url(#linearGradient42);fill-opacity:1;stroke-width:2.22098;stroke-linecap:square;stroke-dasharray:8.88388, 4.44192;paint-order:stroke fill markers"
           id="path15-8-1-2"
           cx="274.21756"
           cy="147.28023"
           r="14.4" />
      </g>
      <g
         id="layer1-4"
         inkscape:label="org-print"
         transform="matrix(4.2991044,0,0,4.3291285,-9.8943014,-99.884273)">
        <g
           id="g2"
           transform="matrix(0.04694568,0,0,0.04694568,14.47833,37.840082)"
           inkscape:label="org-logo">
          <path
             fill="#a04d32"
             stroke="#000000"
             stroke-width="3"
             d="m 64.048596,17.455956 c -0.205,-3.15 -2.842,-4.366 -5.993,-2.125 -7.22,-1.297 -14.305,-0.687 -17.8,-0.981 -7.662,-1.073 -14.041,-5.128 -14.041,-5.128 0.932,-1.239 0.486,-3.917 -5.498,-4.101 -1.646,-0.542 -3.336,-1.327 -4.933,-1.979 0.544,-1.145 -0.133,-2.836 -0.133,-2.836 2.435,-0.672 2.808,-3.842 1.848,-5.709 3.106,0.084 2.612,-4.718 2.183,-6.381 2.435,-0.923 2.77,-3.831 1.763,-6.129 2.938,-0.671 3.022,-4.114 2.77,-6.548 3.023,-0.168 2.604,-5.457 2.604,-6.549 2.604,-1.679 2.016,-3.946 2.425,-6.573 1.605,-3.25 -0.577,-4.173 -2.116,-0.71 -1.651,3.001 -3.77,4.311 -3.75,6.528 0.755,1.259 -5.625,3.106 -3.61,7.052 -1.428,1.763 -4.785,4.03 -3.592,6.733 -0.606,1.326 -4.888,4.433 -3.041,7.371 -4.03,2.687 -3.79,3.335 -2.938,5.793 -1.147,0.736 -2.318,1.862 -2.995,3.094 -1.32,-1.568 -2.603,-4.429 -2.584,-8.294 0,-3.275 -6.1,0.318 -6.1,6.784 0,0.556 -0.056,1.061 -0.134,1.542 -2.11,0.243 -4.751,0.707 -8.08,1.494 -0.106,0.073 -0.157,0.186 -0.182,0.316 a 8.704,8.704 0 0 1 -0.277,-1.553 c -0.582,-3.79 -4.934,-9.56 -7.057,-2.434 -1.096,2.611 -1.74,4.392 -2.115,5.789 v 0 c 0,0 -0.336,0.226 -0.957,0.61 -2.62,1.622 -3.562,6.686 -13.075,9.883 -3.211,1.079 -7.4,1.945 -12.96,2.395 -9.57,0.773 -27.887,17.314 -29.114,33.097 -0.283,3.964 0.31,13.737 3.596,22.31 l 0.005,0.02 c 0.015,0.042 0.032,0.081 0.048,0.122 0.052,0.134 0.103,0.267 0.156,0.398 0.28,0.718 0.579,1.405 0.895,2.062 1.885,4.028 4.46,7.59 7.934,9.882 a 25.252,25.252 0 0 0 4.372,2.762 c 5.907,9.749 18.442,22.252004 42.075,14.859004 36.255,-10.284004 56.263,13.809 58.568,15.5 3.399,3.433 -8.786,-29.835004 -34.587,-44.788004 -15.253,-8.322 -5.678,-22.656 -4.585,-27.718 0,0 12.227,8.557 21.087,-4.52 8.004,2.062 13.367,-1.462 20.25,1.03 4.184,1.833 21.77,0.726 15.235,-9.104 4.11,-2.683 4.544,-1.815 6.6,-5.9 1.104,-4.952 -1.403,-6.012 -2.167,-7.366 z m -70.293,-13.299 c -0.041,0.018 -0.086,0.04 -0.125,0.056 0.039,-0.034 0.075,-0.062 0.115,-0.102 z m -13.413,4.523 c -0.073,0.429 -0.143,0.829 -0.212,1.216 0.037,-0.832 0.085,-1.714 0.143,-2.646 0.024,0.435 0.05,0.904 0.069,1.43 z m 10.693,-6.333 c 0.746,1.124 1.662,2.179 1.662,2.179 0,0 -0.875,-0.79 -1.662,-2.179 z"
             id="path1-1" />
          <path
             fill="#77aa99"
             stroke="#000000"
             stroke-width="0.5"
             d="m -62.902404,75.641956 c 0,0 10.02,36.105004 46.549,24.680004 36.255,-10.284004 56.263,13.809 58.568,15.5 3.399,3.433 -8.786,-29.835004 -34.587,-44.788004 -15.253,-8.322 -5.678,-22.656 -4.585,-27.718 0,0 12.227,8.557 21.087,-4.52 8.004,2.062 13.367,-1.462 20.25,1.03 4.184,1.833 21.77,0.726 15.235,-9.104 4.11,-2.683 4.544,-1.815 6.6,-5.9 1.105,-4.952 -1.402,-6.011 -2.166,-7.366 -0.205,-3.15 -2.842,-4.366 -5.993,-2.125 -7.22,-1.297 -14.305,-0.687 -17.8,-0.981 -7.662,-1.073 -14.041,-5.128 -14.041,-5.128 0.932,-1.239 0.486,-3.917 -5.498,-4.101 -3.287,-1.082 -6.752,-3.136 -9.288,-3.162 -2.567,0 -2.914,-2.537 -2.914,-2.537 -1.606,-0.87 -3.924,-4.252 -3.9,-9.438 0,-3.275 -6.098,0.318 -6.098,6.784 0,6.466 -5.818,7.758 -5.818,7.758 0,0 -2.55,-2.281 -2.855,-5.958 -0.582,-3.79 -4.934,-9.56 -7.057,-2.434 -3.226,7.646 -3.485,9.43 -4.115,13.154 -1.31,7.711 -0.345,8.012 -0.345,8.012 l -32.824,23.43 z"
             id="path2-13" />
          <path
             fill="#314b49"
             stroke="#314b49"
             stroke-width="0.75"
             stroke-linecap="round"
             stroke-linejoin="round"
             d="m 14.759596,14.221956 c 1.549,-0.562 0.897,-0.415 1.153,-0.581 -2.96,0.575 -9.635,0.614 -14.317,-1.133 0.392,0.23 2.568,0.962 2.845,1.128 0.218,0.715 0.1,1.438 2.932,2.709 2.559,0.793 5.845,0.461 6.835,-0.529 0.109,-1.684 0.126,-1.065 0.553,-1.594 z"
             id="path3-5" />
          <path
             fill="#314b49"
             stroke="#314b49"
             stroke-width="0.5"
             d="m 47.128596,33.367956 c -2.83,-2.085 -4.881,-0.264 -6.47,-0.413 0.99,-0.645 3.763,-2.062 8.246,-2.062 2.532,0 3.879,2.196 5.57,2.207 1.14,0.007 4.472,-1.71 5.14,-2.378 -0.97,0.838 0.454,1.755 -0.49,3.003 -0.281,0.359 -0.836,1.511 -2.662,2.051 -2.05,0.971 -5.411,1.762 -9.334,-2.408 z"
             id="path4" />
          <path
             fill="#314b49"
             d="m -14.418404,-4.578044 c 0,0 -3.355,7.996 0.312,15.329 3.667,7.333 0.522,-6.829 4.688,-4.162 3.397,0.385 -2.387,-3.215 -2.033,-7.819 -0.176,-2.892 -1.77,-5.194 -2.967,-3.348 z m 64.404,26.384 c 0,1.121 -1.363,2.03 -3.045,2.03 3.573,-1.121 -0.201,-4.653 -3.045,-2.03 0,-1.121 1.363,-2.03 3.045,-2.03 1.682,0 3.045,0.909 3.045,2.03 z"
             id="path5" />
          <path
             fill="#314b49"
             d="m 44.818596,19.221956 c 3.772,-0.231 6.336,0.323 5.536,3.138 0.548,-1.126 1.292,-2.83 -1.046,-3.507 -1.746,-0.388 -3.3,-0.378 -4.49,0.369 z"
             id="path6" />
          <path
             fill="#a04d32"
             stroke="#000000"
             stroke-width="0.5"
             d="m -9.421404,40.622956 c 0,-3.521 -1.51,-7.166 -7.04,-14.583 -1.635,-2.192 -2.62,-4.336 -3.211,-6.275 -1.401,-3.295 -3.426,-8.019 -0.613,-17.233 0,0 0.62,-0.384 0,0 -2.62,1.622 -3.562,6.686 -13.075,9.883 -3.211,1.079 -7.4,1.945 -12.96,2.395 -9.568,0.773 -27.886,17.314 -29.113,33.097 -0.283,3.964 0.31,13.737 3.596,22.31 l 0.005,0.02 c 0.015,0.042 0.032,0.081 0.048,0.122 0.052,0.134 0.103,0.267 0.156,0.398 0.28,0.718 0.579,1.405 0.895,2.062 1.885,4.028 4.46,7.59 7.934,9.882 3.084,2.404 5.606,3.306 5.606,3.306 -2.588,-3.578 -3.77,-7.562 -2.263,-12.32 0.65,2.637 1.903,4.162 3.646,4.777 -0.615,-1.884 -0.827,-3.549 0,-4.651 2.567,6.734 5.353,9.031 8.17,10.686 -2.63,-4.914 -4.031,-10.005 -3.77,-15.337 2.569,6.028 6.596,9.945 10.56,13.954 -3.78,-5.966 -6.911,-12.104 -6.977,-19.046 1.693,2.778 3.935,4.932 6.6,6.601 -1.683,-2.709 -2.505,-5.51 -2.263,-8.423 4.424,4.945 9.36,6.607 14.332,8.046 -5.197,-3.625 -9.843,-7.537 -12.32,-12.572 2.972,1.464 5.948,1.693 8.926,1.383 -3.706,-1.872 -5.07,-5.252 -5.783,-9.052 5.177,5.279 10.587,8.827 16.09,11.692 -5.455,-5.26 -9.478,-10.65 -11.565,-16.218 2.1,1.18 4.157,1.736 6.16,1.509 -2.766,-3.124 -3.465,-6.182 -4.211,-9.241 2.637,3.916 4.959,6.022 7.103,7.103 -2.19,-4.482 -2.034,-8.432 -0.503,-12.068 2.524,1.675 4.902,4.295 6.915,9.303 0.73,-2.386 -0.447,-6.364 -1.886,-10.56 2.175,0.622 4.779,3.351 8.17,9.932 -0.33,-3.865 -2.138,-7.775 -4.147,-11.692 3.027,3.51 7.557,12.713 6.788,10.81 z"
             id="path7" />
          <path
             fill="#796958"
             stroke="#000000"
             stroke-width="0.5"
             d="m 6.919596,1.564956 c 0,0 -0.252,7.472 6.717,2.603 3.61,0.084 2.015,-3.862 2.015,-3.862 2.435,-0.672 2.808,-3.842 1.848,-5.709 3.106,0.084 2.612,-4.718 2.183,-6.381 2.435,-0.923 2.77,-3.831 1.763,-6.129 2.938,-0.671 3.022,-4.114 2.77,-6.548 3.023,-0.168 2.604,-5.457 2.604,-6.549 2.604,-1.679 2.016,-3.946 2.425,-6.573 1.605,-3.25 -0.577,-4.173 -2.116,-0.71 -1.651,3.001 -3.77,4.311 -3.75,6.528 0.755,1.259 -5.625,3.106 -3.61,7.052 -1.428,1.763 -4.785,4.03 -3.592,6.733 -0.606,1.326 -4.888,4.433 -3.041,7.371 -4.03,2.687 -3.79,3.335 -2.938,5.793 -2.155,1.38 -4.41,4.131 -3.278,6.381 z"
             id="path8" />
          <path
             fill="#ffffff"
             d="m 24.743596,-33.698044 c 0,0 -0.735,1.324 -0.735,2.133 0,0.809 2.185,0.568 2.927,-0.227 -1.625,0.024 -2.965,0.289 -2.192,-1.906 z m -4.261,6.27 c 0,0 -0.812,1.068 -0.183,2.316 0.392,0.98 2.807,0.962 3.549,0.167 -1.625,0.024 -4.14,-0.287 -3.366,-2.483 z m -3.135,6.455 c 0,0 -0.998,1.346 -0.492,2.602 0,0.809 2.838,0.956 3.58,0.161 -1.625,0.022 -3.645,-0.489 -3.088,-2.763 z m -3.078,7.162 c 0,0 -1.402,1.542 -0.148,2.945 1.438,0.809 3.744,0.049 4.486,-0.746 -1.625,0.022 -4.894,0.076 -4.337,-2.199 z m -3.004,5.721 c 0,0 -1.575,1.414 -0.02,3.312 1.438,0.809 4.57,0.198 5.312,-0.597 -1.624,0.024 -5.99,-1.346 -5.292,-2.715 z m -3.147,6.741 c 0,0 -1.403,1.542 -0.15,2.945 1.439,0.809 6.037,-0.186 6.779,-0.981 -1.625,0.023 -7.185,0.311 -6.63,-1.964 z"
             id="path9" />
          <path
             fill="#a04d32"
             stroke="#000000"
             stroke-width="0.5"
             d="m 7.001596,1.678956 c -0.45,-0.45 -0.534,-0.896 -0.367,-1.718 0,0 0.369,-4.107 -16.333,-0.158 -1.072,0.74 2.396,4.722 2.396,4.722 0,0 0.418,0.215 1.047,-0.415 0.253,1.123 0.852,4.081 0.233,4.579 1.245,-0.771 1.868,-1.946 1.676,-4.125 2.122,0.461 3.742,1.64 4.692,3.779 0.304,-1.4 0.603,-2.799 -0.384,-4.126 2.182,0.285 3.88,1.496 5.362,3.124 0.22,-0.933 0.354,-1.883 0,-2.931 1.39,0.473 2.587,1.607 3.71,2.988 0,0 0.21,-3.862 -2.032,-5.719 z"
             id="path10" />
          <path
             opacity="0.26"
             d="m -9.020404,29.324956 c 0,0 6.76,13.59 17.595,13.991 10.834,0.401 10.834,-2.73 10.834,-2.73 0,0 -15.527,3.048 -28.43,-11.261 z m 3.155,7.694 c 2.279,3.104 4.856,5.221 7.722,6.382 0,0 -7.365,11.108 -3.611,20.023 3.754,8.915 13.125,11.053 23.32,21.249 7.943,7.942 17.159,24.961004 17.159,24.961004 0,0 -17.834,-14.176004 -29.42,-13.479004 0,0 -2.687,-9.668 -10.585,-17.566 -11.244,-11.245 -16.168,-25.875 -4.585,-41.57 z"
             id="path11" />
          <path
             opacity="0.18"
             fill="#ffffff"
             d="m -24.633404,9.633956 c -3.874,2.501 -8.42,7.096 -24.415,8.083 -17.05,6.784 -27.433,26.685 -23.777,40.464 1.348,7.317 3.89,14.18 3.89,14.18 -0.885,-5.919 -1.381,-11.397 1.035,-13.599 1.435,2.384 2.969,2.468 4.507,2.479 -1.59,-2.404 -1.788,-4.808 0,-7.212 1.489,1.525 2.992,1.881 4.507,1.353 -2.128,-2.449 -1.867,-4.848 0,-7.211 1.388,5.022 4.462,7.453 7.662,9.689 -2.208,-4.333 -4.166,-8.672 -2.93,-13.07 1.323,0.729 2.595,0.644 3.83,0 -1.256,-1.576 -0.924,-3.153 0,-4.732 2.948,3.04 6.214,3.724 9.466,4.507 -2.661,-2.454 -5.543,-4.527 -6.761,-9.465 1.5,-1.811 3.269,-2.685 5.408,-2.253 -1.901,-1.167 -1.65,-2.543 0,-4.057 2.089,1.104 4.195,1.352 6.31,1.127 -2.807,-1.68 -8.424,-4.994 11.269,-20.283 z"
             id="path12" />
          <path
             opacity="0.27"
             fill="#ffffff"
             d="m 1.927596,-9.222044 c 0.996,-0.963 1.146,-0.65 0.854,0.285 -0.982,2.36 0.353,4.647 0.797,6.206 l -3.871,0.114 c 0.108,-2.271 0.247,-4.794 2.22,-6.605 z"
             id="path13" />
        </g>
        <circle
           style="display:inline;fill:url(#linearGradient34);fill-opacity:1;stroke:url(#linearGradient36);stroke-width:1.11705;stroke-dasharray:none;stroke-opacity:1;paint-order:markers fill stroke"
           id="path3-4-7-4"
           cx="14.576738"
           cy="39.704128"
           r="5.017664" />
      </g>
      <g
         id="layer2"
         inkscape:label="text-circle"
         transform="translate(-0.61756754,-17.680229)">
        <circle
           style="display:none;fill:none;fill-opacity:1;stroke:url(#linearGradient63);stroke-width:1.911;stroke-dasharray:none;stroke-opacity:1;paint-order:markers fill stroke"
           id="path14"
           cx="-144.61757"
           cy="-89.680229"
           r="49.4445"
           transform="scale(-1)" />
      </g>
      <g
         id="layer3"
         inkscape:label="emacs-print"
         transform="matrix(4.3040148,0,0,4.3040148,-46.387456,-98.887156)">
        <g
           id="g14"
           transform="matrix(0.20444381,0,0,0.20444381,49.91265,30.123525)"
           inkscape:label="emacs-logo">
          <path
             style="opacity:0.405;fill:#211f46;fill-opacity:0.996078;stroke:#0a0b1b;stroke-width:8.53333;stroke-miterlimit:4;stroke-dasharray:none;stroke-opacity:1;filter:url(#filter4350-2)"
             id="path4233"
             d="m 491.66937,257.75916 c 0,131.79436 -105.76,238.63481 -236.22155,238.63481 -130.46155,0 -236.221539,-106.84045 -236.221539,-238.63481 0,-131.79437 105.759989,-238.634808 236.221539,-238.634808 130.46155,0 236.22155,106.840438 236.22155,238.634808 z"
             transform="matrix(0.09251715,0,0,0.09251715,52.239437,23.014668)" />
          <path
             d="m 97.727282,46.861811 c 0,12.193238 -9.784609,22.07781 -21.854537,22.07781 -12.069928,0 -21.85455,-9.884572 -21.85455,-22.07781 0,-12.193241 9.784622,-22.077813 21.85455,-22.077813 12.069928,0 21.854537,9.884572 21.854537,22.077813 z"
             id="path4235"
             style="fill:url(#linearGradient4245);fill-opacity:1;stroke:url(#linearGradient4247);stroke-width:1.25046;stroke-miterlimit:4;stroke-dasharray:none;stroke-opacity:1" />
          <path
             d="m 68.36124,62.369561 c 0,0 1.850484,0.130907 4.23105,-0.0789 0.964069,-0.08496 4.624378,-0.444495 7.36096,-1.044646 0,0 3.336553,-0.714064 5.121571,-1.371876 1.867735,-0.688299 2.884088,-1.272473 3.34156,-2.100228 -0.01995,-0.1696 0.14085,-0.771036 -0.720469,-1.132301 -2.202066,-0.923624 -4.755938,-0.756561 -9.809419,-0.863705 -5.604112,-0.192554 -7.468378,-1.130598 -8.461462,-1.886098 -0.952303,-0.766424 -0.473438,-2.886801 3.606956,-4.75453 2.055412,-0.994592 10.112859,-2.83003 10.112859,-2.83003 -2.713603,-1.341304 -7.773618,-3.699274 -8.813756,-4.208459 -0.912262,-0.446576 -2.372156,-1.118995 -2.688609,-1.932532 -0.358791,-0.781021 0.84734,-1.453806 1.521075,-1.646472 2.169825,-0.625876 5.232956,-1.014879 8.020762,-1.058551 1.4013,-0.02195 1.628757,-0.112112 1.628757,-0.112112 1.933528,-0.320734 3.206381,-1.643602 2.676056,-3.738634 -0.476091,-2.138481 -2.987035,-3.39503 -5.373169,-2.960026 -2.247019,0.409646 -7.662919,1.982819 -7.662919,1.982819 6.694453,-0.05794 7.814925,0.05379 8.315344,0.753446 0.295528,0.413196 -0.134287,0.979752 -1.919672,1.271343 -1.943719,0.317453 -5.984175,0.699749 -5.984175,0.699749 -3.876084,0.230194 -6.606394,0.245601 -7.425281,1.979357 -0.534984,1.132684 0.570506,2.134059 1.055044,2.760872 2.047565,2.277098 5.005143,3.505199 6.908887,4.409581 0.716297,0.340278 2.817994,0.982881 2.817994,0.982881 -6.176081,-0.339689 -10.631278,1.556766 -13.244663,3.740271 -2.955825,2.733995 -1.648256,5.992832 4.407413,7.999388 3.576722,1.18515 5.350547,1.742526 10.685766,1.262092 3.1425,-0.169381 3.637884,-0.06858 3.669215,0.189274 0.04411,0.363039 -3.490416,1.264842 -4.455375,1.543181 -2.454872,0.708099 -8.890087,2.137911 -8.9223,2.144846 z"
             id="path4237"
             style="fill:#ffffff;fill-opacity:1;fill-rule:evenodd;stroke:#000000;stroke-width:0;stroke-linecap:butt;stroke-linejoin:miter;stroke-miterlimit:4;stroke-dasharray:none;stroke-opacity:1" />
        </g>
        <circle
           style="display:inline;fill:url(#linearGradient33);fill-opacity:1;stroke:url(#linearGradient41);stroke-width:1.11705;stroke-dasharray:none;stroke-opacity:1;paint-order:markers fill stroke"
           id="path3-4-7-4-1"
           cx="65.42437"
           cy="39.704128"
           r="5.017664" />
      </g>
      <g
         id="layer4-8"
         inkscape:label="note-value">
        <text
           xml:space="preserve"
           style="font-size:10.6667px;font-family:'Love Ya Like A Sister';-inkscape-font-specification:'Love Ya Like A Sister';text-align:center;letter-spacing:0px;writing-mode:lr-tb;direction:ltr;text-anchor:middle;fill:url(#linearGradient15);fill-opacity:1;stroke:url(#linearGradient16);stroke-width:3.84;stroke-dasharray:none;paint-order:stroke fill markers"
           x="144.20799"
           y="126.21899"
           id="text15"><tspan
             sodipodi:role="line"
             id="tspan15"
             x="144.20799"
             y="126.21899"
             style="font-style:normal;font-variant:normal;font-weight:bold;font-stretch:normal;font-size:10.6667px;font-family:'Overpass Mono';-inkscape-font-specification:'Overpass Mono Bold';fill:url(#linearGradient15);fill-opacity:1;stroke:url(#linearGradient16);stroke-width:3.84;stroke-dasharray:none;paint-order:stroke fill markers">CENTRAL BANK OF ENTREPRENEURS</tspan></text>
      </g>
    </g>
  </g>
</svg>
